<?xml version="1.0" encoding="UTF-8" standalone="no"?>
<svg
   width="500"
   zoomAndPan="magnify"
   viewBox="0 0 375 374.999991"
   height="500"
   preserveAspectRatio="xMidYMid meet"
   version="1.0"
   id="svg48"
   sodipodi:docname="logo.svg"
   inkscape:version="1.3 (0e150ed, 2023-07-21)"
   xmlns:inkscape="http://www.inkscape.org/namespaces/inkscape"
   xmlns:sodipodi="http://sodipodi.sourceforge.net/DTD/sodipodi-0.dtd"
   xmlns="http://www.w3.org/2000/svg"
   xmlns:svg="http://www.w3.org/2000/svg">
  <sodipodi:namedview
     id="namedview48"
     pagecolor="#ffffff"
     bordercolor="#000000"
     borderopacity="0.25"
     inkscape:showpageshadow="2"
     inkscape:pageopacity="0.0"
     inkscape:pagecheckerboard="0"
     inkscape:deskcolor="#d1d1d1"
     inkscape:zoom="0.472"
     inkscape:cx="-33.898305"
     inkscape:cy="254.23729"
     inkscape:window-width="1312"
     inkscape:window-height="449"
     inkscape:window-x="0"
     inkscape:window-y="43"
     inkscape:window-maximized="0"
     inkscape:current-layer="svg48" />
  <defs
     id="defs24">
    <clipPath
       id="0e70bc05d9">
      <path
         d="M 20 130 L 241 130 L 241 367 L 20 367 Z M 20 130 "
         clip-rule="nonzero"
         id="path1" />
    </clipPath>
    <clipPath
       id="59b4df457b">
      <path
         d="M 12.386719 203.832031 L 134.421875 121.875 L 249.410156 293.097656 L 127.378906 375.054688 Z M 12.386719 203.832031 "
         clip-rule="nonzero"
         id="path2" />
    </clipPath>
    <clipPath
       id="ee7cb8c529">
      <path
         d="M 12.390625 203.835938 L 135.65625 121.050781 L 250.699219 292.351562 L 127.433594 375.136719 Z M 12.390625 203.835938 "
         clip-rule="nonzero"
         id="path3" />
    </clipPath>
    <clipPath
       id="cca1bcda8c">
      <path
         d="M 30.464844 191.699219 L 116.351562 134.019531 C 126.332031 127.316406 139.855469 129.96875 146.554688 139.941406 L 237.277344 275.03125 C 243.976562 285.003906 241.316406 298.527344 231.335938 305.230469 L 145.449219 362.910156 C 135.464844 369.613281 121.945312 366.960938 115.246094 356.988281 L 24.519531 221.898438 C 17.820312 211.925781 20.480469 198.402344 30.464844 191.699219 Z M 30.464844 191.699219 "
         clip-rule="nonzero"
         id="path4" />
    </clipPath>
    <clipPath
       id="ab9934829c">
      <path
         d="M 88 240 L 133 240 L 133 285 L 88 285 Z M 88 240 "
         clip-rule="nonzero"
         id="path5" />
    </clipPath>
    <clipPath
       id="4906b7209f">
      <path
         d="M 84.992188 257.605469 L 115.929688 236.824219 L 136.347656 267.230469 L 105.410156 288.007812 Z M 84.992188 257.605469 "
         clip-rule="nonzero"
         id="path6" />
    </clipPath>
    <clipPath
       id="5ccd3b2d61">
      <path
         d="M 93.085938 252.167969 L 107.835938 242.261719 C 109.984375 240.820312 112.613281 240.289062 115.152344 240.789062 C 117.6875 241.289062 119.925781 242.773438 121.367188 244.921875 L 130.914062 259.136719 C 132.355469 261.28125 132.882812 263.914062 132.386719 266.449219 C 131.886719 268.988281 130.402344 271.222656 128.253906 272.664062 L 113.503906 282.570312 C 111.359375 284.011719 108.726562 284.542969 106.1875 284.042969 C 103.652344 283.546875 101.414062 282.058594 99.972656 279.914062 L 90.425781 265.699219 C 88.984375 263.550781 88.457031 260.917969 88.953125 258.382812 C 89.453125 255.84375 90.9375 253.609375 93.085938 252.167969 Z M 93.085938 252.167969 "
         clip-rule="nonzero"
         id="path7" />
    </clipPath>
    <clipPath
       id="cfbcf06ae6">
      <path
         d="M 115 280 L 160 280 L 160 325 L 115 325 Z M 115 280 "
         clip-rule="nonzero"
         id="path8" />
    </clipPath>
    <clipPath
       id="9a922e070b">
      <path
         d="M 112.027344 297.859375 L 142.964844 277.082031 L 163.382812 307.484375 L 132.445312 328.261719 Z M 112.027344 297.859375 "
         clip-rule="nonzero"
         id="path9" />
    </clipPath>
    <clipPath
       id="1007209d9c">
      <path
         d="M 120.121094 292.421875 L 134.871094 282.515625 C 137.019531 281.074219 139.648438 280.546875 142.1875 281.042969 C 144.722656 281.542969 146.960938 283.027344 148.402344 285.175781 L 157.949219 299.390625 C 159.390625 301.535156 159.917969 304.167969 159.421875 306.707031 C 158.921875 309.242188 157.4375 311.480469 155.289062 312.921875 L 140.539062 322.828125 C 138.394531 324.269531 135.761719 324.796875 133.222656 324.300781 C 130.6875 323.800781 128.449219 322.316406 127.007812 320.167969 L 117.460938 305.953125 C 116.019531 303.804688 115.492188 301.175781 115.988281 298.636719 C 116.488281 296.101562 117.972656 293.863281 120.121094 292.421875 Z M 120.121094 292.421875 "
         clip-rule="nonzero"
         id="path10" />
    </clipPath>
    <clipPath
       id="1da1ea0346">
      <path
         d="M 61 200 L 106 200 L 106 244 L 61 244 Z M 61 200 "
         clip-rule="nonzero"
         id="path11" />
    </clipPath>
    <clipPath
       id="e78870bac0">
      <path
         d="M 57.957031 217.347656 L 88.894531 196.570312 L 109.3125 226.972656 L 78.375 247.753906 Z M 57.957031 217.347656 "
         clip-rule="nonzero"
         id="path12" />
    </clipPath>
    <clipPath
       id="c2a0d0e813">
      <path
         d="M 66.050781 211.914062 L 80.800781 202.007812 C 82.949219 200.566406 85.578125 200.035156 88.117188 200.535156 C 90.652344 201.03125 92.890625 202.519531 94.332031 204.664062 L 103.878906 218.878906 C 105.320312 221.027344 105.847656 223.660156 105.351562 226.195312 C 104.851562 228.734375 103.367188 230.96875 101.21875 232.410156 L 86.46875 242.316406 C 84.324219 243.757812 81.691406 244.289062 79.152344 243.789062 C 76.617188 243.289062 74.382812 241.804688 72.9375 239.65625 L 63.394531 225.441406 C 61.949219 223.296875 61.421875 220.664062 61.917969 218.128906 C 62.417969 215.589844 63.902344 213.355469 66.050781 211.914062 Z M 66.050781 211.914062 "
         clip-rule="nonzero"
         id="path13" />
    </clipPath>
    <clipPath
       id="d430fe0c7d">
      <path
         d="M 129 213 L 174 213 L 174 257 L 129 257 Z M 129 213 "
         clip-rule="nonzero"
         id="path14" />
    </clipPath>
    <clipPath
       id="5862ff8a9e">
      <path
         d="M 125.617188 230.320312 L 156.554688 209.542969 L 176.972656 239.945312 L 146.035156 260.722656 Z M 125.617188 230.320312 "
         clip-rule="nonzero"
         id="path15" />
    </clipPath>
    <clipPath
       id="853063b83b">
      <path
         d="M 133.710938 224.882812 L 148.460938 214.976562 C 150.609375 213.535156 153.238281 213.007812 155.777344 213.503906 C 158.316406 214.003906 160.550781 215.488281 161.992188 217.636719 L 171.539062 231.851562 C 172.980469 233.996094 173.511719 236.628906 173.011719 239.167969 C 172.511719 241.703125 171.027344 243.9375 168.878906 245.378906 L 154.128906 255.285156 C 151.984375 256.726562 149.351562 257.257812 146.816406 256.761719 C 144.277344 256.261719 142.042969 254.773438 140.601562 252.628906 L 131.054688 238.414062 C 129.613281 236.265625 129.082031 233.636719 129.582031 231.097656 C 130.078125 228.5625 131.566406 226.324219 133.710938 224.882812 Z M 133.710938 224.882812 "
         clip-rule="nonzero"
         id="path16" />
    </clipPath>
    <clipPath
       id="791c8b465c">
      <path
         d="M 156 253 L 201 253 L 201 298 L 156 298 Z M 156 253 "
         clip-rule="nonzero"
         id="path17" />
    </clipPath>
    <clipPath
       id="2fa78905be">
      <path
         d="M 152.652344 270.574219 L 183.589844 249.796875 L 204.007812 280.199219 L 173.070312 300.976562 Z M 152.652344 270.574219 "
         clip-rule="nonzero"
         id="path18" />
    </clipPath>
    <clipPath
       id="2a29dd5486">
      <path
         d="M 160.746094 265.140625 L 175.496094 255.234375 C 177.644531 253.792969 180.273438 253.261719 182.8125 253.761719 C 185.351562 254.257812 187.585938 255.746094 189.027344 257.890625 L 198.574219 272.105469 C 200.015625 274.253906 200.546875 276.882812 200.046875 279.421875 C 199.546875 281.957031 198.0625 284.195312 195.914062 285.636719 L 181.164062 295.542969 C 179.019531 296.984375 176.386719 297.511719 173.851562 297.015625 C 171.3125 296.515625 169.078125 295.03125 167.636719 292.882812 L 158.089844 278.667969 C 156.648438 276.523438 156.117188 273.890625 156.617188 271.355469 C 157.113281 268.816406 158.601562 266.582031 160.746094 265.140625 Z M 160.746094 265.140625 "
         clip-rule="nonzero"
         id="path19" />
    </clipPath>
    <clipPath
       id="feeaccdfd8">
      <path
         d="M 102 173 L 147 173 L 147 217 L 102 217 Z M 102 173 "
         clip-rule="nonzero"
         id="path20" />
    </clipPath>
    <clipPath
       id="cd25d31d33">
      <path
         d="M 98.582031 190.066406 L 129.519531 169.285156 L 149.941406 199.691406 L 119 220.46875 Z M 98.582031 190.066406 "
         clip-rule="nonzero"
         id="path21" />
    </clipPath>
    <clipPath
       id="2f6a283d3d">
      <path
         d="M 106.675781 184.628906 L 121.425781 174.722656 C 123.574219 173.28125 126.207031 172.75 128.742188 173.25 C 131.28125 173.75 133.515625 175.234375 134.957031 177.382812 L 144.503906 191.597656 C 145.945312 193.742188 146.476562 196.375 145.976562 198.910156 C 145.476562 201.449219 143.992188 203.683594 141.84375 205.125 L 127.09375 215.03125 C 124.949219 216.472656 122.316406 217.003906 119.78125 216.503906 C 117.242188 216.007812 115.007812 214.519531 113.566406 212.375 L 104.019531 198.160156 C 102.578125 196.011719 102.046875 193.382812 102.546875 190.84375 C 103.042969 188.304688 104.53125 186.070312 106.675781 184.628906 Z M 106.675781 184.628906 "
         clip-rule="nonzero"
         id="path22" />
    </clipPath>
    <clipPath
       id="54ae4d7cb0">
      <path
         d="M 148.625 2.144531 L 349.621094 2.144531 L 349.621094 167 L 148.625 167 Z M 148.625 2.144531 "
         clip-rule="nonzero"
         id="path23" />
    </clipPath>
    <clipPath
       id="0249725e06">
      <path
         d="M 279.777344 2.144531 L 218.460938 2.144531 C 179.886719 2.144531 148.625 32.753906 148.625 70.511719 C 148.625 97.84375 165.015625 121.421875 188.695312 132.359375 L 188.695312 155.378906 C 188.695312 159.5625 191.109375 163.375 194.890625 165.152344 C 198.675781 166.929688 203.140625 166.355469 206.355469 163.679688 L 219.339844 152.859375 C 230.1875 143.820312 243.847656 138.875 257.953125 138.875 L 279.777344 138.875 C 318.355469 138.875 349.621094 108.265625 349.621094 70.507812 C 349.625 32.753906 318.355469 2.144531 279.777344 2.144531 Z M 279.777344 2.144531 "
         clip-rule="nonzero"
         id="path24" />
    </clipPath>
  </defs>
  <g
     clip-path="url(#0e70bc05d9)"
     id="g28">
    <g
       clip-path="url(#59b4df457b)"
       id="g27">
      <g
         clip-path="url(#ee7cb8c529)"
         id="g26">
        <g
           clip-path="url(#cca1bcda8c)"
           id="g25">
          <path
             stroke-linecap="butt"
             transform="matrix(0.623264, -0.418581, 0.418289, 0.62283, 12.390362, 203.837785)"
             fill="none"
             stroke-linejoin="miter"
             d="M 28.999606 0.00016906 L 166.800111 0.00165526 C 182.813561 0.00132431 195.797189 12.98566 195.799001 28.998712 L 195.795771 245.893237 C 195.797583 261.90629 182.813643 274.893153 166.800193 274.893484 L 28.999688 274.891998 C 12.981919 274.889426 0.00261039 261.907993 0.000798088 245.894941 L -0.000290748 28.997513 C -0.00210305 12.98446 12.981837 -0.00240281 28.999606 0.00016906 Z M 28.999606 0.00016906 "
             stroke="#000000"
             stroke-width="30"
             stroke-opacity="1"
             stroke-miterlimit="4"
             id="path25" />
        </g>
      </g>
    </g>
  </g>
  <g
     clip-path="url(#ab9934829c)"
     id="g31">
    <g
       clip-path="url(#4906b7209f)"
       id="g30">
      <g
         clip-path="url(#5ccd3b2d61)"
         id="g29">
        <path
           fill="#000000"
           d="M 84.992188 257.605469 L 115.929688 236.824219 L 136.347656 267.230469 L 105.410156 288.007812 Z M 84.992188 257.605469 "
           fill-opacity="1"
           fill-rule="nonzero"
           id="path28" />
      </g>
    </g>
  </g>
  <g
     clip-path="url(#cfbcf06ae6)"
     id="g34">
    <g
       clip-path="url(#9a922e070b)"
       id="g33">
      <g
         clip-path="url(#1007209d9c)"
         id="g32">
        <path
           fill="#737373"
           d="M 112.027344 297.859375 L 142.964844 277.082031 L 163.382812 307.484375 L 132.445312 328.261719 Z M 112.027344 297.859375 "
           fill-opacity="1"
           fill-rule="nonzero"
           id="path31" />
      </g>
    </g>
  </g>
  <g
     clip-path="url(#1da1ea0346)"
     id="g37">
    <g
       clip-path="url(#e78870bac0)"
       id="g36">
      <g
         clip-path="url(#c2a0d0e813)"
         id="g35">
        <path
           fill="#737373"
           d="M 57.957031 217.347656 L 88.894531 196.570312 L 109.3125 226.972656 L 78.375 247.753906 Z M 57.957031 217.347656 "
           fill-opacity="1"
           fill-rule="nonzero"
           id="path34" />
      </g>
    </g>
  </g>
  <g
     clip-path="url(#d430fe0c7d)"
     id="g40">
    <g
       clip-path="url(#5862ff8a9e)"
       id="g39">
      <g
         clip-path="url(#853063b83b)"
         id="g38">
        <path
           fill="#000000"
           d="M 125.617188 230.320312 L 156.554688 209.542969 L 176.972656 239.945312 L 146.035156 260.722656 Z M 125.617188 230.320312 "
           fill-opacity="1"
           fill-rule="nonzero"
           id="path37" />
      </g>
    </g>
  </g>
  <g
     clip-path="url(#791c8b465c)"
     id="g43">
    <g
       clip-path="url(#2fa78905be)"
       id="g42">
      <g
         clip-path="url(#2a29dd5486)"
         id="g41">
        <path
           fill="#737373"
           d="M 152.652344 270.574219 L 183.589844 249.796875 L 204.007812 280.199219 L 173.070312 300.976562 Z M 152.652344 270.574219 "
           fill-opacity="1"
           fill-rule="nonzero"
           id="path40" />
      </g>
    </g>
  </g>
  <g
     clip-path="url(#feeaccdfd8)"
     id="g46">
    <g
       clip-path="url(#cd25d31d33)"
       id="g45">
      <g
         clip-path="url(#2f6a283d3d)"
         id="g44">
        <path
           fill="#737373"
           d="M 98.582031 190.066406 L 129.519531 169.285156 L 149.941406 199.691406 L 119 220.46875 Z M 98.582031 190.066406 "
           fill-opacity="1"
           fill-rule="nonzero"
           id="path43" />
      </g>
    </g>
  </g>
  <g
     clip-path="url(#54ae4d7cb0)"
     id="g48">
    <g
       clip-path="url(#0249725e06)"
       id="g47">
      <path
         stroke-linecap="butt"
         transform="matrix(0.749039, 0, 0, 0.750649, 148.62376, 2.143366)"
         fill="none"
         stroke-linejoin="miter"
         d="M 175.095747 0.00155189 L 93.235673 0.00155189 C 41.737411 0.00155189 0.001655 40.778775 0.001655 91.079009 C 0.001655 127.490217 21.883853 158.900544 53.497268 173.471272 L 53.497268 204.13745 C 53.497268 209.710754 56.720146 214.789693 61.76828 217.157436 C 66.821628 219.52518 72.782389 218.760216 77.074345 215.195592 L 94.409052 200.780979 C 108.891145 188.739313 127.128049 182.151263 145.959464 182.151263 L 175.095747 182.151263 C 226.599224 182.151263 268.340195 141.37404 268.340195 91.073805 C 268.34541 40.778775 226.599224 0.00155189 175.095747 0.00155189 Z M 175.095747 0.00155189 "
         stroke="#000000"
         stroke-width="30"
         stroke-opacity="1"
         stroke-miterlimit="4"
         id="path46" />
    </g>
  </g>
</svg>
